HIERARCHY
ROOT joint_Root
{
	OFFSET 0.0 0.0 0.0
	CHANNELS 6 Xposition Yposition Zposition Zrotation Xrotation Yrotation 
	JOINT Hips
	{
		OFFSET -17.1583 93.1646 452.98
		CHANNELS 6 Xposition Yposition Zposition Zrotation Xrotation Yrotation 
		JOINT Spine
		{
			OFFSET 15.7357 0.0 0.0
			CHANNELS 6 Xposition Yposition Zposition Zrotation Xrotation Yrotation 
			JOINT Chest
			{
				OFFSET 8.98455 -0.406207 0.0
				CHANNELS 6 Xposition Yposition Zposition Zrotation Xrotation Yrotation 
				JOINT Neck
				{
					OFFSET 16.3773 0.0 0.0
					CHANNELS 6 Xposition Yposition Zposition Zrotation Xrotation Yrotation 
					JOINT Head
					{
						OFFSET 6.45672 0.0 0.0
						CHANNELS 6 Xposition Yposition Zposition Zrotation Xrotation Yrotation 
						End Site
						{
							OFFSET 0.0 0.0 0.0
						}
					}
				}
				JOINT Shoulder_L
				{
					OFFSET 12.9942 -0.242716 4.98039
					CHANNELS 6 Xposition Yposition Zposition Zrotation Xrotation Yrotation 
					JOINT UpperArm_L
					{
						OFFSET 5.34809 0.0 0.0
						CHANNELS 6 Xposition Yposition Zposition Zrotation Xrotation Yrotation 
						JOINT LowerArm_L
						{
							OFFSET 24.3286 1.87007e-05 0.0
							CHANNELS 6 Xposition Yposition Zposition Zrotation Xrotation Yrotation 
							JOINT Hand_L
							{
								OFFSET 22.2916 0.0 0.0
								CHANNELS 6 Xposition Yposition Zposition Zrotation Xrotation Yrotation 
								End Site
								{
									OFFSET 0.0 0.0 0.0
								}
							}
						}
					}
				}
				JOINT Shoulder_R
				{
					OFFSET 12.9945 -0.242716 -4.98039
					CHANNELS 6 Xposition Yposition Zposition Zrotation Xrotation Yrotation 
					JOINT UpperArm_R
					{
						OFFSET -5.34813 0.0 0.0
						CHANNELS 6 Xposition Yposition Zposition Zrotation Xrotation Yrotation 
						JOINT LowerArm_R
						{
							OFFSET -24.3289 0.000322201 0.0
							CHANNELS 6 Xposition Yposition Zposition Zrotation Xrotation Yrotation 
							JOINT Hand_R
							{
								OFFSET -22.2915 -0.000108084 0.0
								CHANNELS 6 Xposition Yposition Zposition Zrotation Xrotation Yrotation 
								End Site
								{
									OFFSET 0.0 0.0 0.0
								}
							}
						}
					}
				}
			}
		}
		JOINT UpperLeg_L
		{
			OFFSET -2.19248 -6.46944 0.0
			CHANNELS 6 Xposition Yposition Zposition Zrotation Xrotation Yrotation 
			JOINT LowerLeg_L
			{
				OFFSET 39.0811 0.0 -1.23785e-05
				CHANNELS 6 Xposition Yposition Zposition Zrotation Xrotation Yrotation 
				JOINT Foot_L
				{
					OFFSET 40.9854 0.0 -1.26872e-05
					CHANNELS 6 Xposition Yposition Zposition Zrotation Xrotation Yrotation 
					JOINT Toes_L
					{
						OFFSET 11.7543 0.0 0.0
						CHANNELS 6 Xposition Yposition Zposition Zrotation Xrotation Yrotation 
						End Site
						{
							OFFSET 0.0 0.0 0.0
						}
					}
				}
			}
		}
		JOINT UpperLeg_R
		{
			OFFSET -2.19251 6.46944 0.0
			CHANNELS 6 Xposition Yposition Zposition Zrotation Xrotation Yrotation 
			JOINT LowerLeg_R
			{
				OFFSET -39.0811 -0.00228153 -0.0401928
				CHANNELS 6 Xposition Yposition Zposition Zrotation Xrotation Yrotation 
				JOINT Foot_R
				{
					OFFSET -40.9854 0.0 0.0
					CHANNELS 6 Xposition Yposition Zposition Zrotation Xrotation Yrotation 
					JOINT Toes_R
					{
						OFFSET -11.7543 0.0 0.0
						CHANNELS 6 Xposition Yposition Zposition Zrotation Xrotation Yrotation 
						End Site
						{
							OFFSET 0.0 0.0 0.0
						}
					}
				}
			}
		}
	}
}
MOTION
Frames:	7
Frame Time:	0.0333333
0.000000 0.000000 0.000000 0.000000 0.000000 -0.000000 0.547103 93.015300 0.940162 88.779700 0.022216 1.170820 15.735700 0.000005 -0.000001 122.543000 87.413000 -122.191000 8.984550 -0.406207 -0.000000 -3.414670 2.747490 0.785332 16.377300 -0.000001 -0.000001 2.463550 0.833803 -2.147040 6.456720 -0.000001 -0.000000 3.116700 -1.763710 1.374760 12.994200 -0.242716 4.980390 -92.883500 8.548140 -71.280200 5.348090 -0.000007 -0.000001 -69.443000 24.479200 -3.507020 24.328600 0.000019 0.000005 9.514650 30.944200 -18.053700 22.291600 -0.000001 0.000005 -12.377700 5.192410 2.901030 12.994500 -0.242716 -4.980390 88.409400 5.812950 -74.668400 -5.348130 -0.000001 -0.000004 -72.508900 29.117100 -2.837260 -24.328900 0.000322 -0.000009 1.134370 3.616090 -17.445300 -22.291500 -0.000108 -0.000004 2.277470 5.295510 0.197839 -2.192480 -6.469440 -0.000000 -174.883000 -4.081380 0.422041 39.081100 -0.000007 -0.000012 0.038468 -0.144967 14.861600 40.985400 -0.000006 -0.000013 -0.399038 11.329800 -69.259700 11.754300 -0.000000 0.000003 -0.000511 0.175828 -9.444840 -2.192510 6.469440 -0.000001 175.121000 6.721260 -177.153000 -39.081100 -0.002282 -0.040193 0.001728 0.008369 10.884900 -40.985400 0.000008 0.000006 -9.623680 6.645380 -66.747400 -11.754300 -0.000006 -0.000006 -0.010309 0.273601 -5.457080
0.000000 0.000000 0.000000 0.000000 0.000000 -0.000000 0.504483 93.021000 0.933079 88.906600 0.294964 1.078970 15.735700 0.000005 -0.000001 122.965000 87.323700 -122.514000 8.984550 -0.406207 -0.000000 -3.288360 2.867550 0.985348 16.377300 -0.000001 -0.000001 1.800890 0.880552 -1.721000 6.456720 -0.000001 -0.000000 2.574500 -1.552770 2.264690 12.994200 -0.242716 4.980390 -92.825800 8.352670 -71.232700 5.348090 -0.000007 -0.000001 -67.454500 22.627500 -6.293960 24.328600 0.000019 0.000005 9.333750 33.980500 -16.387800 22.291600 -0.000001 0.000005 -16.196100 5.283320 0.518481 12.994500 -0.242716 -4.980390 88.489000 5.539250 -74.715700 -5.348130 -0.000001 -0.000004 -72.666500 28.132700 -2.481870 -24.328900 0.000322 -0.000009 1.009450 3.110040 -18.009800 -22.291500 -0.000108 -0.000004 2.334960 5.296260 0.176867 -2.192480 -6.469440 -0.000000 -174.971000 -3.982810 0.382663 39.081100 -0.000007 -0.000012 0.038484 -0.147068 14.664400 40.985400 -0.000006 -0.000013 -0.425108 11.525900 -69.145200 11.754300 -0.000000 0.000003 -0.000302 0.172566 -9.577350 -2.192510 6.469440 -0.000001 174.977000 7.287770 -177.286000 -39.081100 -0.002282 -0.040193 0.002520 0.004187 11.040400 -40.985400 0.000008 0.000006 -9.544400 6.930520 -66.815700 -11.754300 -0.000006 -0.000006 -0.010455 0.274677 -5.413060
0.000000 0.000000 0.000000 0.000000 0.000000 -0.000000 0.483157 93.058700 0.915888 89.088700 0.799212 0.674067 15.735700 0.000005 -0.000001 122.880000 87.412000 -122.222000 8.984550 -0.406207 -0.000000 -3.436440 2.744280 1.399300 16.377300 -0.000001 -0.000001 0.971684 1.100240 -1.441010 6.456720 -0.000001 -0.000000 2.130070 -1.152520 2.905270 12.994200 -0.242716 4.980390 -92.680000 7.881980 -71.153000 5.348090 -0.000007 -0.000001 -64.897100 18.400400 -9.889860 24.328600 0.000019 0.000005 8.298180 37.373800 -13.511000 22.291600 -0.000001 0.000005 -20.959200 5.361990 -1.743280 12.994500 -0.242716 -4.980390 88.585600 5.179710 -74.704200 -5.348130 -0.000001 -0.000004 -72.615100 26.777900 -2.216650 -24.328900 0.000322 -0.000009 1.217080 3.676190 -18.347100 -22.291500 -0.000108 -0.000004 2.478520 5.296260 0.176909 -2.192480 -6.469440 -0.000000 -175.142000 -3.812960 0.139037 39.081100 -0.000007 -0.000012 0.037947 -0.150373 14.163200 40.985400 -0.000006 -0.000013 -0.467147 11.809500 -68.970800 11.754300 -0.000000 0.000003 -0.000436 0.174661 -9.492260 -2.192510 6.469440 -0.000001 174.797000 8.030030 -177.507000 -39.081100 -0.002282 -0.040193 0.003208 0.000678 10.793200 -40.985400 0.000008 0.000006 -9.791220 7.099440 -66.579400 -11.754300 -0.000006 -0.000006 -0.010177 0.272625 -5.496980
0.000000 0.000000 0.000000 0.000000 0.000000 -0.000000 0.476650 93.133900 0.893200 89.245800 1.288430 -0.007092 15.735700 0.000005 -0.000001 124.036000 87.678700 -123.039000 8.984550 -0.406207 -0.000000 -3.941640 2.495010 2.080230 16.377300 -0.000001 -0.000001 0.187216 1.411110 -1.219820 6.456720 -0.000001 -0.000000 1.774440 -0.507280 3.388640 12.994200 -0.242716 4.980390 -92.470000 7.249530 -71.128200 5.348090 -0.000007 -0.000001 -61.925400 10.809000 -13.412200 24.328600 0.000019 0.000005 6.099230 38.173800 -9.808900 22.291600 -0.000001 0.000005 -24.631800 5.349410 -1.357720 12.994500 -0.242716 -4.980390 88.665600 4.856670 -74.616700 -5.348130 -0.000001 -0.000004 -72.187800 25.280100 -1.791070 -24.328900 0.000322 -0.000009 1.367380 4.058140 -18.652200 -22.291500 -0.000108 -0.000004 2.609920 5.295930 0.186307 -2.192480 -6.469440 -0.000000 -175.283000 -4.029130 -0.168208 39.081100 -0.000007 -0.000012 0.036795 -0.156072 13.265700 40.985400 -0.000006 -0.000013 -0.501987 12.402600 -68.669300 11.754300 -0.000000 0.000003 -0.000541 0.176282 -9.426400 -2.192510 6.469440 -0.000001 174.667000 8.385560 -177.758000 -39.081100 -0.002282 -0.040193 0.004143 -0.004563 9.991220 -40.985400 0.000008 0.000006 -10.542100 7.020410 -65.983700 -11.754300 -0.000006 -0.000006 -0.010176 0.272617 -5.497320
0.000000 0.000000 0.000000 0.000000 0.000000 -0.000000 0.497493 93.239500 0.820913 89.410500 1.724410 -1.015540 15.735700 0.000005 -0.000001 125.251000 88.083100 -123.807000 8.984550 -0.406207 -0.000000 -4.661070 2.054230 2.973560 16.377300 -0.000001 -0.000001 -0.994387 1.919280 -0.999284 6.456720 -0.000001 -0.000000 1.649630 0.486495 3.856000 12.994200 -0.242716 4.980390 -92.209400 6.480960 -71.129500 5.348090 -0.000007 -0.000001 -58.695500 0.421176 -16.681100 24.328600 0.000019 0.000005 4.253760 38.866600 -6.759600 22.291600 -0.000001 0.000005 -24.101500 5.315480 -0.367566 12.994500 -0.242716 -4.980390 88.777300 4.406970 -74.476400 -5.348130 -0.000001 -0.000004 -71.528400 23.354500 -1.594360 -24.328900 0.000322 -0.000009 1.433930 4.260670 -18.633000 -22.291500 -0.000108 -0.000004 2.722290 5.297100 0.153682 -2.192480 -6.469440 -0.000000 -175.459000 -4.424810 -0.618563 39.081100 -0.000007 -0.000012 0.034954 -0.165138 11.951300 40.985400 -0.000006 -0.000013 -0.560958 13.191900 -68.131500 11.754300 -0.000000 0.000003 -0.000431 0.174594 -9.494950 -2.192510 6.469440 -0.000001 174.712000 8.224850 -178.684000 -39.081100 -0.002282 -0.040193 0.007858 -0.026347 9.732380 -40.985400 0.000008 0.000006 -10.586800 6.338030 -65.726600 -11.754300 -0.000006 -0.000006 -0.010411 0.274354 -5.426280
0.000000 0.000000 0.000000 0.000000 0.000000 -0.000000 0.534889 93.387700 0.735614 89.402200 2.009040 -2.010910 15.735700 0.000005 -0.000001 123.469000 88.474600 -121.408000 8.984550 -0.406207 -0.000000 -5.244650 1.446840 4.190850 16.377300 -0.000001 -0.000001 -2.501600 2.436510 -0.626935 6.456720 -0.000001 -0.000000 1.376360 1.643200 4.175200 12.994200 -0.242716 4.980390 -91.912300 5.640570 -71.237600 5.348090 -0.000007 -0.000001 -54.640700 -9.869620 -19.288400 24.328600 0.000019 0.000005 3.200530 38.008700 -5.188560 22.291600 -0.000001 0.000005 -19.859700 5.306850 -0.123849 12.994500 -0.242716 -4.980390 88.932800 3.822920 -74.390400 -5.348130 -0.000001 -0.000004 -70.593700 21.119000 -1.803220 -24.328900 0.000322 -0.000009 1.523690 4.609640 -18.325500 -22.291500 -0.000108 -0.000004 3.049460 5.290820 0.328396 -2.192480 -6.469440 -0.000000 -175.341000 -4.966770 -1.112220 39.081100 -0.000007 -0.000012 0.017129 -0.091475 10.606700 40.985400 -0.000006 -0.000013 -1.928700 14.193200 -66.861600 11.754300 -0.000000 0.000003 -0.000296 0.172471 -9.581230 -2.192510 6.469440 -0.000001 174.897000 8.012840 -179.614000 -39.081100 -0.002282 -0.040193 0.011469 -0.049315 9.360560 -40.985400 0.000008 0.000006 -10.870100 5.736380 -65.073200 -11.754300 -0.000006 -0.000006 -0.009683 0.268919 -5.648550
0.000000 0.000000 0.000000 0.000000 0.000000 -0.000000 0.595213 93.539500 0.665713 89.121900 1.919710 -2.839890 15.735700 0.000005 -0.000001 119.507000 88.761100 -116.684000 8.984550 -0.406207 -0.000000 -5.625710 0.889199 5.695780 16.377300 -0.000001 -0.000001 -4.091100 2.823840 0.052952 6.456720 -0.000001 -0.000000 0.842266 2.787010 4.473780 12.994200 -0.242716 4.980390 -91.545800 4.583800 -71.341800 5.348090 -0.000007 -0.000001 -50.192500 -20.255700 -21.195200 24.328600 0.000019 0.000005 2.454490 35.122700 -4.260750 22.291600 -0.000001 0.000005 -13.888000 5.291990 0.289591 12.994500 -0.242716 -4.980390 89.042100 3.407840 -74.289200 -5.348130 -0.000001 -0.000004 -69.160700 18.777700 -2.258100 -24.328900 0.000322 -0.000009 1.640370 5.078770 -17.937100 -22.291500 -0.000108 -0.000004 3.517340 5.285590 0.472982 -2.192480 -6.469440 -0.000000 -174.972000 -5.685660 -1.477360 39.081100 -0.000007 -0.000012 0.003907 -0.023480 9.448060 40.985400 -0.000006 -0.000013 -3.539840 14.964800 -65.638400 11.754300 -0.000000 0.000003 -0.000668 0.178193 -9.348770 -2.192510 6.469440 -0.000001 175.293000 7.637760 179.696000 -39.081100 -0.002282 -0.040193 0.013193 -0.064366 8.702330 -40.985400 0.000008 0.000006 -11.067700 5.245050 -64.123000 -11.754300 -0.000006 -0.000006 -0.009168 0.264983 -5.809470
